<svg width="24" height="24" viewBox="0 0 24 24" fill="none" xmlns="http://www.w3.org/2000/svg">
<path fill-rule="evenodd" clip-rule="evenodd" d="M12.1366 14.3444L12.2495 14.3444L12.5021 14.3453C14.4327 14.3592 18.8446 14.5716 18.8446 17.8292C18.8446 21.0653 14.5865 21.2764 12.5322 21.2901L11.7711 21.2901C9.84038 21.2763 5.4276 21.0641 5.4276 17.8106C5.4276 14.5704 9.84038 14.3591 11.7711 14.3453L12.0237 14.3444C12.0629 14.3444 12.1005 14.3444 12.1366 14.3444ZM12.1366 15.9784C9.7606 15.9784 6.9276 16.2965 6.9276 17.8106C6.9276 19.2906 9.59151 19.6366 11.9194 19.6562L12.1366 19.6571C14.5126 19.6571 17.3446 19.3401 17.3446 17.8292C17.3446 16.2997 14.5126 15.9784 12.1366 15.9784ZM20.0902 13.9023C22.5132 14.2977 23.0222 15.5374 23.0222 16.508C23.0222 17.1006 22.8082 18.1823 21.3782 18.776C21.2902 18.812 21.2002 18.8294 21.1112 18.8294C20.8092 18.8294 20.5242 18.629 20.4102 18.3032C20.2622 17.8817 20.4572 17.4089 20.8442 17.2488C21.5222 16.9677 21.5222 16.6573 21.5222 16.508C21.5222 16.0309 20.9652 15.6975 19.8672 15.5189C19.4582 15.4514 19.1752 15.0363 19.2362 14.5886C19.2972 14.142 19.6772 13.8446 20.0902 13.9023ZM5.036 14.5886C5.097 15.0363 4.814 15.4514 4.405 15.5189C3.307 15.6975 2.75 16.0309 2.75 16.508C2.75 16.6573 2.75 16.9666 3.429 17.2488C3.816 17.4089 4.011 17.8817 3.863 18.3032C3.749 18.629 3.464 18.8294 3.162 18.8294C3.073 18.8294 2.983 18.812 2.895 18.776C1.464 18.1812 1.25 17.0995 1.25 16.508C1.25 15.5385 1.759 14.2977 4.183 13.9023C4.596 13.8457 4.974 14.142 5.036 14.5886ZM12.1366 3C14.6566 3 16.7056 5.23314 16.7056 7.97719C16.7056 10.7212 14.6566 12.9544 12.1366 12.9544H12.1096C10.8896 12.95 9.7466 12.4293 8.8906 11.4881C8.0326 10.548 7.5636 9.29964 7.56856 7.97392C7.56856 5.23314 9.6176 3 12.1366 3ZM12.1366 4.63401C10.4446 4.63401 9.06858 6.13403 9.06858 7.97719C9.0656 8.87044 9.3796 9.70597 9.9546 10.3367C10.5296 10.9674 11.2956 11.3171 12.1116 11.3204L12.1366 12.1374V11.3204C13.8286 11.3204 15.2056 9.82144 15.2056 7.97719C15.2056 6.13403 13.8286 4.63401 12.1366 4.63401ZM18.3256 4.06701C20.0836 4.38183 21.3606 6.02019 21.3606 7.96248C21.3566 9.91784 20.0156 11.5954 18.2406 11.8667C18.2056 11.8721 18.1706 11.8743 18.1366 11.8743C17.7686 11.8743 17.4476 11.5791 17.3946 11.1706C17.3376 10.7229 17.6226 10.31 18.0336 10.2479C19.0736 10.0889 19.8586 9.10629 19.8606 7.9603C19.8606 6.82412 19.1126 5.86333 18.0816 5.67923C17.6736 5.60624 17.3966 5.18576 17.4636 4.74022C17.5316 4.29468 17.9146 3.9962 18.3256 4.06701ZM6.8096 4.74022C6.8766 5.18576 6.5996 5.60624 6.1916 5.67923C5.1606 5.86333 4.4126 6.82412 4.4126 7.96248C4.4146 9.10629 5.1996 10.09 6.2386 10.2479C6.6496 10.31 6.9346 10.7229 6.8776 11.1706C6.8246 11.5791 6.5036 11.8743 6.1356 11.8743C6.1016 11.8743 6.0666 11.8721 6.0316 11.8667C4.2566 11.5954 2.9166 9.91784 2.9126 7.96466C2.9126 6.02019 4.1896 4.38183 5.9476 4.06701C6.3686 3.99511 6.7416 4.29686 6.8096 4.74022Z" fill="#6E6666"/>
</svg>
