<svg width="24" height="24" viewBox="0 0 24 24" fill="none" xmlns="http://www.w3.org/2000/svg">
<path fill-rule="evenodd" clip-rule="evenodd" d="M11.4922 2.0364C11.9062 2.0364 12.2422 2.3724 12.2422 2.7864C12.2422 3.2004 11.9062 3.5364 11.4922 3.5364H7.75324C5.16924 3.5364 3.50024 5.3064 3.50024 8.0454V16.3594C3.50024 19.0984 5.16924 20.8684 7.75324 20.8684H16.5772C19.1612 20.8684 20.8312 19.0984 20.8312 16.3594V12.3314C20.8312 11.9174 21.1672 11.5814 21.5812 11.5814C21.9952 11.5814 22.3312 11.9174 22.3312 12.3314V16.3594C22.3312 19.9534 20.0182 22.3684 16.5772 22.3684H7.75324C4.31224 22.3684 2.00024 19.9534 2.00024 16.3594V8.0454C2.00024 4.4514 4.31224 2.0364 7.75324 2.0364H11.4922ZM20.2018 2.915L21.4188 4.132C22.0118 4.724 22.3378 5.511 22.3368 6.349C22.3368 7.187 22.0108 7.973 21.4188 8.564L13.9098 16.073C13.3588 16.624 12.6248 16.928 11.8448 16.928H8.09884C7.89684 16.928 7.70284 16.846 7.56184 16.701C7.42084 16.557 7.34384 16.362 7.34884 16.159L7.44284 12.38C7.46184 11.628 7.76484 10.921 8.29684 10.388H8.29784L15.7708 2.915C16.9928 1.695 18.9798 1.695 20.2018 2.915ZM15.1552 5.651L9.35784 11.449C9.09884 11.708 8.95184 12.052 8.94284 12.417L8.86784 15.428H11.8448C12.2248 15.428 12.5808 15.281 12.8498 15.012L18.6822 9.178L15.1552 5.651ZM16.8308 3.976L16.2152 4.59L19.7422 8.118L20.3588 7.503C20.6668 7.195 20.8368 6.785 20.8368 6.349C20.8368 5.912 20.6668 5.501 20.3588 5.193L19.1418 3.976C18.5048 3.341 17.4688 3.341 16.8308 3.976Z" fill="#6E6666"/>
</svg>
